<svg xmlns="http://www.w3.org/2000/svg" viewBox="0 0 900 250" width="900" height="250" role="img" aria-label="the daily line">
  <title>the daily line</title>
  <defs>
    <radialGradient id="ga" cx="28%" cy="22%" r="92%">
      <stop offset="0%" stop-color="#2a1e11"/><stop offset="60%" stop-color="#14100a"/>
      <stop offset="100%" stop-color="#0b0807"/>
    </radialGradient>
    <linearGradient id="ba" x1="0" y1="0" x2="1" y2="1">
      <stop offset="0%" stop-color="#e7c469"/><stop offset="55%" stop-color="#8a6a1e"/>
      <stop offset="100%" stop-color="#3d2b09"/>
    </linearGradient>
  </defs>
  <rect width="900" height="250" rx="7" fill="url(#ga)"/>
  <rect x="1.1" y="1.1" width="897.8" height="247.8" rx="6" fill="none"
        stroke="url(#ba)" stroke-width="2.2"/>
  <text x="20" y="31" font-family="Georgia, 'Times New Roman', serif" font-size="15" font-weight="700"
        letter-spacing="2.6" fill="#b8860b">THE DAILY LINE</text>
  <path d="M20 40 H 880" stroke="#b8860b" stroke-width="1" stroke-dasharray="1.5 5" opacity="0.55"/>
  <path d="M56 214.0 H 866" stroke="#3a2c18" stroke-width="1"/>
  <text x="47" y="218.0" font-family="Georgia, 'Times New Roman', serif" font-size="10.5" text-anchor="end" fill="#8a7350">0</text>
  <path d="M56 144.0 H 866" stroke="#3a2c18" stroke-width="1"/>
  <text x="47" y="148.0" font-family="Georgia, 'Times New Roman', serif" font-size="10.5" text-anchor="end" fill="#8a7350">36</text>
  <path d="M56 74.0 H 866" stroke="#3a2c18" stroke-width="1"/>
  <text x="47" y="78.0" font-family="Georgia, 'Times New Roman', serif" font-size="10.5" text-anchor="end" fill="#8a7350">73</text>
  <polygon points="56,214 56.0,158.4 83.9,121.9 111.9,183.3 139.8,189.1 167.7,214.0 195.7,214.0 223.6,143.0 251.5,208.2 279.4,160.3 307.4,179.5 335.3,206.3 363.2,214.0 391.2,214.0 419.1,194.8 447.0,152.6 475.0,121.9 502.9,185.2 530.8,198.7 558.8,214.0 586.7,214.0 614.6,214.0 642.6,104.7 670.5,74.0 698.4,162.2 726.3,208.2 754.3,214.0 782.2,214.0 810.1,198.7 838.1,194.8 866.0,214.0 866,214" fill="#e7c469" opacity="0.13"/>
  <polyline points="56.0,158.4 83.9,121.9 111.9,183.3 139.8,189.1 167.7,214.0 195.7,214.0 223.6,143.0 251.5,208.2 279.4,160.3 307.4,179.5 335.3,206.3 363.2,214.0 391.2,214.0 419.1,194.8 447.0,152.6 475.0,121.9 502.9,185.2 530.8,198.7 558.8,214.0 586.7,214.0 614.6,214.0 642.6,104.7 670.5,74.0 698.4,162.2 726.3,208.2 754.3,214.0 782.2,214.0 810.1,198.7 838.1,194.8 866.0,214.0" fill="none" stroke="#e7c469" stroke-width="2" stroke-linejoin="round" stroke-linecap="round"/>
  <circle cx="670.5" cy="74.0" r="4" fill="#a8412a" stroke="#14100a" stroke-width="2"/>
  <text x="670.5" y="63.0" font-family="Georgia, 'Times New Roman', serif" font-size="11.5" font-weight="700" text-anchor="middle" fill="#f0e4c8">73</text>
  <text x="56.0" y="232.0" font-family="Georgia, 'Times New Roman', serif" font-size="10.5" text-anchor="middle" fill="#8a7350">4 Aug</text>
  <text x="195.7" y="232.0" font-family="Georgia, 'Times New Roman', serif" font-size="10.5" text-anchor="middle" fill="#8a7350">9 Aug</text>
  <text x="335.3" y="232.0" font-family="Georgia, 'Times New Roman', serif" font-size="10.5" text-anchor="middle" fill="#8a7350">14 Aug</text>
  <text x="475.0" y="232.0" font-family="Georgia, 'Times New Roman', serif" font-size="10.5" text-anchor="middle" fill="#8a7350">19 Aug</text>
  <text x="614.6" y="232.0" font-family="Georgia, 'Times New Roman', serif" font-size="10.5" text-anchor="middle" fill="#8a7350">24 Aug</text>
  <text x="754.3" y="232.0" font-family="Georgia, 'Times New Roman', serif" font-size="10.5" text-anchor="middle" fill="#8a7350">29 Aug</text>
  <text x="461" y="56" font-family="Georgia, 'Times New Roman', serif" font-size="12.5" font-style="italic" text-anchor="middle" fill="#bda06e">Nulla dies sine linea — contributions, last 30 days</text>
</svg>
